<svg width="20" height="20" viewBox="0 0 20 20" fill="none" xmlns="http://www.w3.org/2000/svg">
<path fill-rule="evenodd" clip-rule="evenodd" d="M3.33334 10C3.33334 9.53976 3.70643 9.16666 4.16667 9.16666L15.8333 9.16666C16.2936 9.16666 16.6667 9.53976 16.6667 10C16.6667 10.4602 16.2936 10.8333 15.8333 10.8333L4.16667 10.8333C3.70643 10.8333 3.33334 10.4602 3.33334 10Z" />
<path fill-rule="evenodd" clip-rule="evenodd" d="M3.57741 10.5893C3.25198 10.2638 3.25198 9.73618 3.57741 9.41074L9.41075 3.57741C9.73618 3.25197 10.2638 3.25197 10.5893 3.57741C10.9147 3.90284 10.9147 4.43048 10.5893 4.75592L5.34518 10L10.5893 15.2441C10.9147 15.5695 10.9147 16.0971 10.5893 16.4226C10.2638 16.748 9.73618 16.748 9.41075 16.4226L3.57741 10.5893Z" />
</svg>
