<svg width="20" height="20" viewBox="0 0 20 20" fill="none" xmlns="http://www.w3.org/2000/svg">
<path d="M14.1619 7.019C14.488 6.69291 14.488 6.16422 14.1619 5.83813C13.8358 5.51204 13.3071 5.51204 12.981 5.83813L10 8.81913L7.01901 5.83813C6.69292 5.51204 6.16423 5.51204 5.83814 5.83813C5.51205 6.16422 5.51205 6.69291 5.83814 7.019L8.81913 10L5.83814 12.981C5.51205 13.3071 5.51205 13.8358 5.83814 14.1619C6.16423 14.4879 6.69292 14.4879 7.01901 14.1619L10 11.1809L12.981 14.1619C13.3071 14.4879 13.8358 14.4879 14.1619 14.1619C14.488 13.8358 14.488 13.3071 14.1619 12.981L11.1809 10L14.1619 7.019Z" fill="#AAAAAA"/>
</svg>
