<svg width="20" height="20" viewBox="0 0 20 20" fill="none" xmlns="http://www.w3.org/2000/svg">
<path fill-rule="evenodd" clip-rule="evenodd" d="M7.74407 5.24408C8.06951 4.91864 8.59714 4.91864 8.92258 5.24408L13.0892 9.41074C13.4147 9.73618 13.4147 10.2638 13.0892 10.5893L8.92258 14.7559C8.59714 15.0814 8.06951 15.0814 7.74407 14.7559C7.41863 14.4305 7.41863 13.9028 7.74407 13.5774L11.3215 10L7.74407 6.42259C7.41863 6.09715 7.41863 5.56951 7.74407 5.24408Z" fill="#AAAAAA"/>
<path fill-rule="evenodd" clip-rule="evenodd" d="M1.66666 10C1.66666 9.53976 2.03975 9.16667 2.49999 9.16667H12.5C12.9602 9.16667 13.3333 9.53976 13.3333 10C13.3333 10.4602 12.9602 10.8333 12.5 10.8333H2.49999C2.03975 10.8333 1.66666 10.4602 1.66666 10Z" fill="#AAAAAA"/>
<path fill-rule="evenodd" clip-rule="evenodd" d="M16.875 3C17.3582 3 17.75 3.39175 17.75 3.875L17.75 16.125C17.75 16.6082 17.3582 17 16.875 17C16.3918 17 16 16.6082 16 16.125L16 3.875C16 3.39175 16.3918 3 16.875 3Z" fill="#AAAAAA"/>
</svg>
