<svg width="20" height="20" viewBox="0 0 20 20" fill="none" xmlns="http://www.w3.org/2000/svg">
<path fill-rule="evenodd" clip-rule="evenodd" d="M14.4531 3.48797C14.2112 3.48797 13.9793 3.58405 13.8083 3.75507L4.1964 13.3669L3.76651 15.0865L5.48606 14.6566L15.0979 5.04473C15.1826 4.96005 15.2498 4.85952 15.2956 4.74888C15.3414 4.63824 15.365 4.51966 15.365 4.3999C15.365 4.28015 15.3414 4.16156 15.2956 4.05092C15.2498 3.94028 15.1826 3.83975 15.0979 3.75507C15.0132 3.67039 14.9127 3.60322 14.8021 3.55739C14.6914 3.51156 14.5728 3.48797 14.4531 3.48797ZM12.7561 2.70291C13.2062 2.25285 13.8166 2 14.4531 2C14.7682 2 15.0803 2.06208 15.3715 2.18268C15.6627 2.30329 15.9272 2.48006 16.1501 2.70291C16.3729 2.92577 16.5497 3.19033 16.6703 3.4815C16.7909 3.77267 16.853 4.08474 16.853 4.3999C16.853 4.71506 16.7909 5.02714 16.6703 5.31831C16.5497 5.60947 16.3729 5.87404 16.1501 6.09689L6.3925 15.8545C6.29715 15.9498 6.17768 16.0175 6.04687 16.0502L2.92444 16.8308C2.67091 16.8942 2.40272 16.8199 2.21792 16.6351C2.03313 16.4503 1.95885 16.1821 2.02223 15.9286L2.80283 12.8061C2.83554 12.6753 2.90318 12.5558 2.99853 12.4605L12.7561 2.70291Z" fill="#AAAAAA"/>
</svg>
