<svg width="20" height="20" viewBox="0 0 20 20" fill="none" xmlns="http://www.w3.org/2000/svg">
<path d="M13.0904 8.09043C13.4165 7.76435 13.4165 7.23565 13.0904 6.90957C12.7643 6.58348 12.2357 6.58348 11.9096 6.90957L10 8.81913L8.09043 6.90957C7.76435 6.58348 7.23565 6.58348 6.90957 6.90957C6.58348 7.23565 6.58348 7.76435 6.90957 8.09043L8.81913 10L6.90957 11.9096C6.58348 12.2357 6.58348 12.7643 6.90957 13.0904C7.23565 13.4165 7.76435 13.4165 8.09043 13.0904L10 11.1809L11.9096 13.0904C12.2357 13.4165 12.7643 13.4165 13.0904 13.0904C13.4165 12.7643 13.4165 12.2357 13.0904 11.9096L11.1809 10L13.0904 8.09043Z" />
<path fill-rule="evenodd" clip-rule="evenodd" d="M10 17.33C14.0482 17.33 17.33 14.0482 17.33 10C17.33 5.95175 14.0482 2.67 10 2.67C5.95175 2.67 2.67 5.95175 2.67 10C2.67 14.0482 5.95175 17.33 10 17.33ZM10 19C14.9706 19 19 14.9706 19 10C19 5.02944 14.9706 1 10 1C5.02944 1 1 5.02944 1 10C1 14.9706 5.02944 19 10 19Z" />
</svg>
