<svg width="20" height="20" viewBox="0 0 20 20" fill="none" xmlns="http://www.w3.org/2000/svg">
<path fill-rule="evenodd" clip-rule="evenodd" d="M11.6726 14.7559C11.3472 15.0814 10.8195 15.0814 10.4941 14.7559L6.32742 10.5893C6.00198 10.2638 6.00198 9.73618 6.32742 9.41074L10.4941 5.24408C10.8195 4.91864 11.3472 4.91864 11.6726 5.24408C11.998 5.56951 11.998 6.09715 11.6726 6.42259L8.09518 10L11.6726 13.5774C11.998 13.9028 11.998 14.4305 11.6726 14.7559Z" fill="#AAAAAA"/>
<path fill-rule="evenodd" clip-rule="evenodd" d="M17.75 10C17.75 10.4602 17.3769 10.8333 16.9167 10.8333L8.91667 10.8333C8.45643 10.8333 8.08334 10.4602 8.08334 10C8.08334 9.53976 8.45643 9.16667 8.91667 9.16667L16.9167 9.16667C17.3769 9.16667 17.75 9.53976 17.75 10Z" fill="#AAAAAA"/>
<path fill-rule="evenodd" clip-rule="evenodd" d="M2.54167 17C2.05842 17 1.66667 16.6082 1.66667 16.125L1.66667 3.875C1.66667 3.39175 2.05842 3 2.54167 3C3.02492 3 3.41667 3.39175 3.41667 3.875L3.41667 16.125C3.41667 16.6082 3.02492 17 2.54167 17Z" fill="#AAAAAA"/>
<path d="M7.41667 10C7.41667 9.44772 7.86439 9 8.41667 9C8.96896 9 9.41667 9.44772 9.41667 10C9.41667 10.5523 8.96896 11 8.41667 11C7.86439 11 7.41667 10.5523 7.41667 10Z" fill="#AAAAAA"/>
</svg>
