<svg width="22" height="22" viewBox="0 0 22 22" fill="none" xmlns="http://www.w3.org/2000/svg">
<path fill-rule="evenodd" clip-rule="evenodd" d="M11.0651 5.16865L18.2936 12.4038C18.6268 11.9534 18.9338 11.4841 19.213 10.9981C19.1222 10.8412 19.002 10.6416 18.8533 10.4113C18.4691 9.81654 17.9002 9.02555 17.1617 8.23776C15.6819 6.65931 13.6181 5.19319 11.0651 5.16865ZM20.1667 11L20.9135 10.6266C21.0346 10.8688 21.0307 11.1548 20.9031 11.3936C20.3698 12.3912 19.7339 13.3304 19.0056 14.1959C18.8549 14.375 18.6361 14.4826 18.4023 14.4926C18.1686 14.5026 17.9413 14.414 17.776 14.2485L8.6593 5.1235C8.44513 4.90914 8.3639 4.59559 8.44705 4.30421C8.53019 4.01284 8.76466 3.78937 9.05969 3.72031C9.696 3.57136 10.3475 3.49687 11.001 3.49833C14.2508 3.4987 16.7475 5.35425 18.38 7.09557C19.2039 7.97445 19.833 8.85013 20.2561 9.50532C20.4682 9.83372 20.6299 10.1089 20.7398 10.3042C20.7948 10.4019 20.8368 10.4798 20.8658 10.5346C20.8803 10.562 20.8916 10.5836 20.8995 10.5991L20.909 10.6176L20.9119 10.6233L20.9128 10.6252L20.9135 10.6266C20.9137 10.6269 20.9135 10.6266 20.1667 11ZM5.54324 5.38636C5.87568 5.1325 6.34466 5.16379 6.64043 5.45957L9.82045 8.63958C9.82242 8.64153 9.82438 8.64349 9.82633 8.64546L13.3545 12.1736C13.3565 12.1756 13.3585 12.1776 13.3604 12.1796L16.5404 15.3596C16.7108 15.5299 16.7993 15.7656 16.7831 16.0059C16.767 16.2463 16.6478 16.468 16.4562 16.6141C14.8899 17.808 12.9828 18.4694 11.0136 18.5016L11 18.5018C7.74974 18.5018 5.25266 16.6459 3.62 14.9044C2.79606 14.0256 2.16703 13.1499 1.74388 12.4947C1.53179 12.1663 1.37005 11.8911 1.26019 11.6958C1.20523 11.5981 1.16315 11.5202 1.13415 11.4654C1.11965 11.438 1.10842 11.4164 1.10047 11.4009L1.091 11.3824L1.08813 11.3767L1.08715 11.3748C1.087 11.3744 1.08649 11.3734 1.83333 11L1.08649 11.3734C0.965151 11.1308 0.969284 10.8443 1.09757 10.6052C2.19044 8.56852 3.70622 6.78912 5.54324 5.38636ZM2.7874 11.0026C2.87823 11.1595 2.99828 11.3588 3.14674 11.5887C3.53089 12.1835 4.09977 12.9744 4.83833 13.7622C6.32936 15.3527 8.41326 16.8291 10.9932 16.8317C12.2801 16.8095 13.5344 16.4591 14.6401 15.821L12.7079 13.8887C12.5759 13.9714 12.4379 14.045 12.295 14.1086C11.8859 14.2909 11.4443 14.3889 10.9965 14.3968C10.5487 14.4047 10.1039 14.3224 9.68862 14.1546C9.27335 13.9869 8.89612 13.7372 8.57944 13.4206C8.26275 13.1039 8.01309 12.7266 7.84536 12.3114C7.67763 11.8961 7.59526 11.4513 7.60316 11.0035C7.61106 10.5557 7.70907 10.1141 7.89135 9.70503C7.95504 9.56209 8.02856 9.42414 8.11125 9.29212L5.98915 7.17002C4.7094 8.25287 3.62596 9.54941 2.7874 11.0026ZM9.35731 10.5382C9.30442 10.6976 9.27587 10.8644 9.2729 11.033C9.26895 11.2565 9.31008 11.4786 9.39382 11.6859C9.47756 11.8933 9.6022 12.0816 9.76031 12.2397C9.91841 12.3978 10.1067 12.5224 10.3141 12.6062C10.5214 12.6899 10.7435 12.731 10.967 12.7271C11.1356 12.7241 11.3024 12.6956 11.4618 12.6427L9.35731 10.5382Z" fill="#AAAAAA"/>
<path fill-rule="evenodd" clip-rule="evenodd" d="M1.2429 1.2429C1.56899 0.916815 2.09768 0.916815 2.42377 1.2429L20.7571 19.5762C21.0832 19.9023 21.0832 20.431 20.7571 20.7571C20.431 21.0832 19.9023 21.0832 19.5762 20.7571L1.2429 2.42377C0.916811 2.09768 0.916811 1.56899 1.2429 1.2429Z" fill="#AAAAAA"/>
</svg>
