<svg width="22" height="20" viewBox="0 0 22 20" fill="none" xmlns="http://www.w3.org/2000/svg">
<path fill-rule="evenodd" clip-rule="evenodd" d="M2.78588 10C2.87689 10.1572 2.99745 10.3575 3.14675 10.5887C3.53089 11.1835 4.09978 11.9745 4.83833 12.7622C6.33068 14.3541 8.41693 15.8317 11 15.8317C13.5831 15.8317 15.6693 14.3541 17.1617 12.7622C17.9002 11.9745 18.4691 11.1835 18.8533 10.5887C19.0026 10.3575 19.1231 10.1572 19.2141 10C19.1231 9.84276 19.0026 9.64251 18.8533 9.41135C18.4691 8.81654 17.9002 8.02556 17.1617 7.23776C15.6693 5.64593 13.5831 4.16834 11 4.16834C8.41693 4.16834 6.33068 5.64593 4.83833 7.23776C4.09978 8.02556 3.53089 8.81654 3.14675 9.41135C2.99745 9.64251 2.87689 9.84276 2.78588 10ZM20.1667 10C20.9135 9.62658 20.9132 9.62599 20.9132 9.62599L20.9119 9.62331L20.909 9.61762L20.8995 9.59909C20.8916 9.58363 20.8803 9.56199 20.8658 9.53459C20.8369 9.47979 20.7948 9.40189 20.7398 9.30418C20.6299 9.10886 20.4682 8.83373 20.2561 8.50533C19.833 7.85013 19.2039 6.97445 18.38 6.09558C16.7473 4.35408 14.2503 2.49834 11 2.49834C7.74975 2.49834 5.25266 4.35408 3.62001 6.09558C2.79606 6.97445 2.16703 7.85013 1.74388 8.50533C1.53179 8.83373 1.37006 9.10886 1.26019 9.30418C1.20523 9.40189 1.16315 9.47979 1.13416 9.53459C1.11966 9.56199 1.10842 9.58363 1.10047 9.59909L1.09101 9.61762L1.08813 9.62331L1.08716 9.62525C1.08716 9.62525 1.08649 9.62658 1.83334 10L1.08649 9.62658C0.968952 9.86165 0.968952 10.1384 1.08649 10.3734L1.83334 10C1.08649 10.3734 1.08649 10.3734 1.08649 10.3734L1.08813 10.3767L1.09101 10.3824L1.10047 10.4009C1.10842 10.4164 1.11966 10.438 1.13416 10.4654C1.16315 10.5202 1.20523 10.5981 1.26019 10.6958C1.37006 10.8911 1.53179 11.1663 1.74388 11.4947C2.16703 12.1499 2.79606 13.0256 3.62001 13.9044C5.25266 15.6459 7.74975 17.5017 11 17.5017C14.2503 17.5017 16.7473 15.6459 18.38 13.9044C19.2039 13.0256 19.833 12.1499 20.2561 11.4947C20.4682 11.1663 20.6299 10.8911 20.7398 10.6958C20.7948 10.5981 20.8369 10.5202 20.8658 10.4654C20.8803 10.438 20.8916 10.4164 20.8995 10.4009L20.909 10.3824L20.9119 10.3767L20.9128 10.3748C20.9128 10.3748 20.9135 10.3734 20.1667 10ZM20.1667 10L20.9135 10.3734C21.0311 10.1384 21.0308 9.86107 20.9132 9.62599L20.1667 10Z" />
<path fill-rule="evenodd" clip-rule="evenodd" d="M11 8.335C10.0805 8.335 9.335 9.08045 9.335 10C9.335 10.9196 10.0805 11.665 11 11.665C11.9196 11.665 12.665 10.9196 12.665 10C12.665 9.08045 11.9196 8.335 11 8.335ZM7.665 10C7.665 8.15813 9.15813 6.665 11 6.665C12.8419 6.665 14.335 8.15813 14.335 10C14.335 11.8419 12.8419 13.335 11 13.335C9.15813 13.335 7.665 11.8419 7.665 10Z" />
</svg>
