<svg width="20" height="20" viewBox="0 0 20 20" fill="none" xmlns="http://www.w3.org/2000/svg">
<path fill-rule="evenodd" clip-rule="evenodd" d="M10 17.33C14.0482 17.33 17.33 14.0482 17.33 10C17.33 5.95175 14.0482 2.67 10 2.67C5.95175 2.67 2.67 5.95175 2.67 10C2.67 14.0482 5.95175 17.33 10 17.33ZM10 19C14.9706 19 19 14.9706 19 10C19 5.02944 14.9706 1 10 1C5.02944 1 1 5.02944 1 10C1 14.9706 5.02944 19 10 19Z" />
<path fill-rule="evenodd" clip-rule="evenodd" d="M10 9.165C10.4612 9.165 10.835 9.53884 10.835 10V13.33C10.835 13.7912 10.4612 14.165 10 14.165C9.53884 14.165 9.165 13.7912 9.165 13.33V10C9.165 9.53884 9.53884 9.165 10 9.165Z" />
<path d="M11 6.5C11 7.05228 10.5523 7.5 10 7.5C9.44771 7.5 9 7.05228 9 6.5C9 5.94772 9.44771 5.5 10 5.5C10.5523 5.5 11 5.94772 11 6.5Z" />
<path fill-rule="evenodd" clip-rule="evenodd" d="M10 5.83C9.62997 5.83 9.33 6.12997 9.33 6.5C9.33 6.87003 9.62997 7.17 10 7.17C10.37 7.17 10.67 6.87003 10.67 6.5C10.67 6.12997 10.37 5.83 10 5.83ZM10 7.5C10.5523 7.5 11 7.05228 11 6.5C11 5.94772 10.5523 5.5 10 5.5C9.44771 5.5 9 5.94772 9 6.5C9 7.05228 9.44771 7.5 10 7.5Z" />
</svg>
