<svg width="20" height="20" viewBox="0 0 20 20" fill="none" xmlns="http://www.w3.org/2000/svg">
<path fill-rule="evenodd" clip-rule="evenodd" d="M15.8333 16.6667C16.0544 16.6667 16.2663 16.5789 16.4226 16.4226C16.5789 16.2663 16.6667 16.0544 16.6667 15.8333L16.6667 4.16668C16.6667 3.94566 16.5789 3.7337 16.4226 3.57742C16.2663 3.42114 16.0544 3.33334 15.8333 3.33334L12.5 3.33334C12.0398 3.33334 11.6667 2.96025 11.6667 2.50001C11.6667 2.03977 12.0398 1.66668 12.5 1.66668L15.8333 1.66668C16.4964 1.66668 17.1323 1.93007 17.6011 2.39891C18.07 2.86775 18.3333 3.50364 18.3333 4.16668L18.3333 15.8333C18.3333 16.4964 18.07 17.1323 17.6011 17.6011C17.1323 18.07 16.4964 18.3333 15.8333 18.3333L12.5 18.3333C12.0398 18.3333 11.6667 17.9602 11.6667 17.5C11.6667 17.0398 12.0398 16.6667 12.5 16.6667L15.8333 16.6667Z" fill="#AAAAAA"/>
<path fill-rule="evenodd" clip-rule="evenodd" d="M7.25593 14.7559C6.9305 15.0814 6.40286 15.0814 6.07742 14.7559L1.91075 10.5893C1.58532 10.2638 1.58532 9.73619 1.91075 9.41075L6.07742 5.24409C6.40286 4.91865 6.9305 4.91865 7.25593 5.24409C7.58137 5.56952 7.58137 6.09716 7.25593 6.4226L3.67852 10L7.25593 13.5774C7.58137 13.9029 7.58137 14.4305 7.25593 14.7559Z" fill="#AAAAAA"/>
<path fill-rule="evenodd" clip-rule="evenodd" d="M13.3333 10C13.3333 10.4602 12.9602 10.8333 12.5 10.8333L2.50001 10.8333C2.03977 10.8333 1.66668 10.4602 1.66668 10C1.66668 9.53977 2.03977 9.16668 2.50001 9.16668L12.5 9.16668C12.9602 9.16668 13.3333 9.53977 13.3333 10Z" fill="#AAAAAA"/>
</svg>
