<svg width="20" height="20" viewBox="0 0 20 20" fill="none" xmlns="http://www.w3.org/2000/svg">
<path fill-rule="evenodd" clip-rule="evenodd" d="M11.6667 2.49999C11.6667 2.03975 12.0398 1.66666 12.5 1.66666H15.8333C16.4964 1.66666 17.1323 1.93005 17.6011 2.39889C18.0699 2.86773 18.3333 3.50362 18.3333 4.16666V15.8333C18.3333 16.4964 18.0699 17.1323 17.6011 17.6011C17.1323 18.0699 16.4964 18.3333 15.8333 18.3333H12.5C12.0398 18.3333 11.6667 17.9602 11.6667 17.5C11.6667 17.0398 12.0398 16.6667 12.5 16.6667H15.8333C16.0543 16.6667 16.2663 16.5789 16.4226 16.4226C16.5789 16.2663 16.6667 16.0543 16.6667 15.8333V4.16666C16.6667 3.94564 16.5789 3.73368 16.4226 3.5774C16.2663 3.42112 16.0543 3.33332 15.8333 3.33332H12.5C12.0398 3.33332 11.6667 2.96023 11.6667 2.49999Z" fill="#AAAAAA"/>
<path fill-rule="evenodd" clip-rule="evenodd" d="M7.74408 5.24407C8.06951 4.91863 8.59715 4.91863 8.92259 5.24407L13.0893 9.41073C13.4147 9.73617 13.4147 10.2638 13.0893 10.5892L8.92259 14.7559C8.59715 15.0814 8.06951 15.0814 7.74408 14.7559C7.41864 14.4305 7.41864 13.9028 7.74408 13.5774L11.3215 9.99999L7.74408 6.42258C7.41864 6.09714 7.41864 5.5695 7.74408 5.24407Z" fill="#AAAAAA"/>
<path fill-rule="evenodd" clip-rule="evenodd" d="M1.66667 9.99999C1.66667 9.53975 2.03976 9.16666 2.5 9.16666H12.5C12.9602 9.16666 13.3333 9.53975 13.3333 9.99999C13.3333 10.4602 12.9602 10.8333 12.5 10.8333H2.5C2.03976 10.8333 1.66667 10.4602 1.66667 9.99999Z" fill="#AAAAAA"/>
</svg>
