<svg width="64" height="64" viewBox="0 0 64 64" fill="none" xmlns="http://www.w3.org/2000/svg">
<path fill-rule="evenodd" clip-rule="evenodd" d="M13.718 55.7137C12.9356 55.9219 11.8403 56 11.0839 56C7.04157 56 4.82478 53.866 4.82478 49.9884V39.3444C4.82478 36.82 3.99022 34.2176 1.04319 34.2176H0V30.8344H1.04319C3.99022 30.8344 4.82478 28.232 4.82478 25.7076V15.0116C4.82478 11.134 7.04157 9 11.0839 9C11.8403 9 12.9356 9.07807 13.718 9.28627V12.5133C13.2225 12.3571 12.4923 12.253 11.762 12.253C9.77995 12.253 8.58028 13.242 8.58028 15.454V25.8378C8.58028 28.6589 7.57017 31.3494 4.64696 32.5339C7.57017 33.7021 8.58028 36.3892 8.58028 39.1883V49.546C8.58028 51.758 9.77995 52.747 11.762 52.747C12.4923 52.747 13.2225 52.6429 13.718 52.4867V55.7137ZM59.1752 49.9884C59.1752 53.866 56.9324 56 52.89 56C52.1337 56 51.0644 55.9219 50.2559 55.7137V52.4867C50.7775 52.6429 51.5077 52.747 52.2119 52.747C54.2201 52.747 55.4197 51.758 55.4197 49.546V39.1883C55.4197 36.3892 56.4298 33.7021 59.3372 32.5339C56.4298 31.3494 55.4197 28.6589 55.4197 25.8378V15.454C55.4197 13.242 54.2201 12.253 52.2119 12.253C51.4817 12.253 50.7775 12.3571 50.2559 12.5133V9.28627C51.0644 9.07807 52.1597 9 52.89 9C56.9324 9 59.1752 11.134 59.1752 15.0116V25.7076C59.1752 28.232 59.9837 30.8344 62.9307 30.8344H64V34.2176H62.9307C59.9837 34.2176 59.1752 36.82 59.1752 39.3444V49.9884ZM32 22H16V18H32V22ZM48 22H36V18H48V22ZM16 30H24V26H16V30ZM48 30L28 30V26L48 26V30ZM16 38H30V34H16V38ZM48 38L34 38V34L48 34V38ZM16 46H27V42H16V46ZM37.5 46H31V42H37.5V46ZM41.5 46H48V42H41.5V46Z" fill="#777777"/>
</svg>
