<svg width="20" height="20" viewBox="0 0 20 20" fill="none" xmlns="http://www.w3.org/2000/svg">
<path fill-rule="evenodd" clip-rule="evenodd" d="M8.66498 9.99993C8.66498 9.26263 9.26268 8.66493 9.99998 8.66493C10.7373 8.66493 11.335 9.26263 11.335 9.99993C11.335 10.7372 10.7373 11.3349 9.99998 11.3349C9.26268 11.3349 8.66498 10.7372 8.66498 9.99993Z"/>
<path fill-rule="evenodd" clip-rule="evenodd" d="M8.665 4.50001C8.665 3.76271 9.2627 3.16501 10 3.16501C10.7373 3.16501 11.335 3.76271 11.335 4.50001C11.335 5.23731 10.7373 5.83501 10 5.83501C9.2627 5.83501 8.665 5.23731 8.665 4.50001Z"/>
<path fill-rule="evenodd" clip-rule="evenodd" d="M8.665 15.5C8.665 14.7627 9.2627 14.165 10 14.165C10.7373 14.165 11.335 14.7627 11.335 15.5C11.335 16.2373 10.7373 16.835 10 16.835C9.2627 16.835 8.665 16.2373 8.665 15.5Z"/>
</svg>
