<svg width="20" height="20" viewBox="0 0 20 20" fill="none" xmlns="http://www.w3.org/2000/svg">
<path fill-rule="evenodd" clip-rule="evenodd" d="M10 17.3333C14.0501 17.3333 17.3334 14.0501 17.3334 9.99998C17.3334 5.94989 14.0501 2.66665 10 2.66665C5.94996 2.66665 2.66671 5.94989 2.66671 9.99998C2.66671 14.0501 5.94996 17.3333 10 17.3333ZM19 9.99998C19 14.9705 14.9706 19 10 19C5.02948 19 1.00005 14.9705 1.00005 9.99998C1.00005 5.02942 5.02948 0.999981 10 0.999981C14.9706 0.999981 19 5.02942 19 9.99998Z" fill="#AAAAAA"/>
<path d="M9.73226 11.735C10.1367 11.735 10.3589 11.5129 10.4443 11.1312C10.5184 10.6527 10.6893 10.4077 11.4469 9.96908C12.2502 9.49626 12.666 8.90951 12.666 8.04932C12.666 6.72201 11.578 5.83333 9.96013 5.83333C8.73536 5.83333 7.8239 6.31755 7.45932 7.0695C7.34538 7.28597 7.28842 7.50244 7.28842 7.7474C7.28842 8.18034 7.56755 8.45947 8.01758 8.45947C8.36508 8.45947 8.62142 8.29997 8.76384 7.93539C8.94613 7.42839 9.32211 7.15495 9.88038 7.15495C10.507 7.15495 10.9399 7.54232 10.9399 8.10059C10.9399 8.62468 10.7178 8.90951 9.98291 9.34815C9.31071 9.74121 8.96322 10.1855 8.96322 10.8577V10.9375C8.96322 11.4046 9.24805 11.735 9.73226 11.735ZM9.74366 14.27C10.262 14.27 10.6779 13.877 10.6779 13.3757C10.6779 12.8744 10.262 12.4813 9.74366 12.4813C9.23096 12.4813 8.81511 12.8744 8.81511 13.3757C8.81511 13.877 9.23096 14.27 9.74366 14.27Z" fill="#AAAAAA"/>
</svg>
