<svg width="20" height="20" viewBox="0 0 20 20" fill="none" xmlns="http://www.w3.org/2000/svg">
<path fill-rule="evenodd" clip-rule="evenodd" d="M17.9999 2.94287C18.4602 2.94287 18.8333 3.31596 18.8333 3.7762V8.44409C18.8333 8.90433 18.4602 9.27743 17.9999 9.27743H13.6363C13.1761 9.27743 12.803 8.90433 12.803 8.44409C12.803 7.98385 13.1761 7.61076 13.6363 7.61076H17.1666V3.7762C17.1666 3.31596 17.5397 2.94287 17.9999 2.94287Z" />
<path fill-rule="evenodd" clip-rule="evenodd" d="M1.16667 11.5559C1.16667 11.0957 1.53977 10.7226 2.00001 10.7226H6.36364C6.82388 10.7226 7.19698 11.0957 7.19698 11.5559C7.19698 12.0162 6.82388 12.3893 6.36364 12.3893H2.83334V16.2238C2.83334 16.6841 2.46024 17.0572 2.00001 17.0572C1.53977 17.0572 1.16667 16.6841 1.16667 16.2238V11.5559Z" />
<path fill-rule="evenodd" clip-rule="evenodd" d="M11.5684 4.07182C10.6494 3.78748 9.67962 3.75697 8.74752 3.98258C7.8151 4.20826 6.94549 4.68428 6.22182 5.37233C5.49782 6.0607 4.94375 6.9389 4.61663 7.92777C4.47208 8.36472 4.00069 8.60177 3.56374 8.45722C3.12679 8.31268 2.88975 7.84128 3.03429 7.40433C3.44487 6.16318 4.14457 5.04759 5.07341 4.16447C6.00259 3.28102 7.13104 2.65904 8.35545 2.36268C9.58018 2.06625 10.8557 2.10667 12.061 2.47963C13.2618 2.85116 14.3492 3.53904 15.2252 4.47329L18.5908 7.8563C18.9154 8.18258 18.914 8.71021 18.5877 9.03481C18.2615 9.35941 17.7338 9.35805 17.4092 9.03177L14.0347 5.63977C14.0285 5.63359 14.0225 5.62733 14.0166 5.62096C13.3309 4.8871 12.4877 4.35628 11.5684 4.07182ZM1.41227 10.9652C1.73855 10.6406 2.26618 10.642 2.59078 10.9682L5.96532 14.3602C5.97147 14.3664 5.97751 14.3727 5.98345 14.379C6.66914 15.1129 7.51233 15.6437 8.43165 15.9282C9.35058 16.2125 10.3204 16.243 11.2525 16.0174C12.1849 15.7917 13.0545 15.3157 13.7782 14.6277C14.5022 13.9393 15.0563 13.0611 15.3834 12.0722C15.5279 11.6353 15.9993 11.3982 16.4363 11.5428C16.8732 11.6873 17.1103 12.1587 16.9657 12.5957C16.5551 13.8368 15.8554 14.9524 14.9266 15.8355C13.9974 16.719 12.869 17.341 11.6446 17.6373C10.4198 17.9338 9.14433 17.8933 7.93899 17.5204C6.73824 17.1488 5.65083 16.461 4.77483 15.5267L1.40923 12.1437C1.08463 11.8174 1.086 11.2898 1.41227 10.9652Z" />
</svg>
