<svg width="20" height="20" viewBox="0 0 20 20" fill="none" xmlns="http://www.w3.org/2000/svg">
<path fill-rule="evenodd" clip-rule="evenodd" d="M9.16666 3.33498C5.94592 3.33498 3.33499 5.9459 3.33499 9.16664C3.33499 12.3874 5.94592 14.9983 9.16666 14.9983C12.3874 14.9983 14.9983 12.3874 14.9983 9.16664C14.9983 5.9459 12.3874 3.33498 9.16666 3.33498ZM1.66499 9.16664C1.66499 5.02359 5.0236 1.66498 9.16666 1.66498C13.3097 1.66498 16.6683 5.02359 16.6683 9.16664C16.6683 13.3097 13.3097 16.6683 9.16666 16.6683C5.0236 16.6683 1.66499 13.3097 1.66499 9.16664Z" fill="#AAAAAA"/>
<path fill-rule="evenodd" clip-rule="evenodd" d="M13.2846 13.2845C13.6106 12.9585 14.1393 12.9585 14.4654 13.2845L18.0904 16.9095C18.4165 17.2356 18.4165 17.7643 18.0904 18.0904C17.7643 18.4165 17.2356 18.4165 16.9096 18.0904L13.2846 14.4654C12.9585 14.1393 12.9585 13.6106 13.2846 13.2845Z" fill="#AAAAAA"/>
</svg>
