<svg width="20" height="20" viewBox="0 0 20 20" fill="none" xmlns="http://www.w3.org/2000/svg">
<g clip-path="url(#clip0_4343_36345)">
<path fill-rule="evenodd" clip-rule="evenodd" d="M9.99999 8.33501C9.08044 8.33501 8.33499 9.08045 8.33499 10C8.33499 10.9196 9.08044 11.665 9.99999 11.665C10.9195 11.665 11.665 10.9196 11.665 10C11.665 9.08045 10.9195 8.33501 9.99999 8.33501ZM6.66499 10C6.66499 8.15814 8.15812 6.66501 9.99999 6.66501C11.8419 6.66501 13.335 8.15814 13.335 10C13.335 11.8419 11.8419 13.335 9.99999 13.335C8.15812 13.335 6.66499 11.8419 6.66499 10Z" stroke="none" />
<path d="M16.1667 12.5C16.0557 12.7514 16.0226 13.0302 16.0717 13.3005C16.1207 13.5708 16.2495 13.8203 16.4417 14.0167L16.4917 14.0667C16.6466 14.2215 16.7696 14.4053 16.8534 14.6076C16.9373 14.8099 16.9805 15.0268 16.9805 15.2458C16.9805 15.4649 16.9373 15.6817 16.8534 15.8841C16.7696 16.0864 16.6466 16.2702 16.4917 16.425C16.3369 16.58 16.1531 16.7029 15.9507 16.7868C15.7484 16.8706 15.5315 16.9138 15.3125 16.9138C15.0935 16.9138 14.8766 16.8706 14.6743 16.7868C14.4719 16.7029 14.2881 16.58 14.1333 16.425L14.0833 16.375C13.8869 16.1829 13.6375 16.054 13.3672 16.005C13.0968 15.956 12.818 15.9891 12.5667 16.1C12.3202 16.2056 12.11 16.381 11.9619 16.6046C11.8139 16.8282 11.7344 17.0902 11.7333 17.3583V17.5C11.7333 17.942 11.5577 18.366 11.2452 18.6785C10.9326 18.9911 10.5087 19.1667 10.0667 19.1667C9.62463 19.1667 9.20071 18.9911 8.88815 18.6785C8.57559 18.366 8.39999 17.942 8.39999 17.5V17.425C8.39354 17.1492 8.30426 16.8817 8.14375 16.6573C7.98325 16.4328 7.75894 16.2619 7.49999 16.1667C7.24865 16.0557 6.96983 16.0227 6.6995 16.0717C6.42917 16.1207 6.17973 16.2496 5.98333 16.4417L5.93333 16.4917C5.77854 16.6466 5.59473 16.7696 5.3924 16.8534C5.19006 16.9373 4.97319 16.9805 4.75416 16.9805C4.53514 16.9805 4.31826 16.9373 4.11593 16.8534C3.9136 16.7696 3.72978 16.6466 3.57499 16.4917C3.42003 16.3369 3.2971 16.1531 3.21323 15.9507C3.12935 15.7484 3.08618 15.5315 3.08618 15.3125C3.08618 15.0935 3.12935 14.8766 3.21323 14.6743C3.2971 14.4719 3.42003 14.2881 3.57499 14.1333L3.62499 14.0833C3.81711 13.8869 3.94598 13.6375 3.995 13.3672C4.04401 13.0968 4.01092 12.818 3.89999 12.5667C3.79436 12.3202 3.61896 12.11 3.39538 11.9619C3.17181 11.8139 2.90982 11.7344 2.64166 11.7333H2.49999C2.05797 11.7333 1.63404 11.5577 1.32148 11.2452C1.00892 10.9326 0.833328 10.5087 0.833328 10.0667C0.833328 9.62465 1.00892 9.20073 1.32148 8.88817C1.63404 8.5756 2.05797 8.40001 2.49999 8.40001H2.57499C2.85082 8.39356 3.11833 8.30427 3.34274 8.14377C3.56716 7.98326 3.73809 7.75896 3.83333 7.50001C3.94426 7.24866 3.97735 6.96985 3.92833 6.69952C3.87932 6.42919 3.75044 6.17974 3.55833 5.98334L3.50833 5.93334C3.35337 5.77855 3.23044 5.59474 3.14656 5.39241C3.06269 5.19008 3.01952 4.9732 3.01952 4.75418C3.01952 4.53515 3.06269 4.31827 3.14656 4.11594C3.23044 3.91361 3.35337 3.7298 3.50833 3.57501C3.66312 3.42005 3.84693 3.29712 4.04926 3.21324C4.25159 3.12937 4.46847 3.0862 4.68749 3.0862C4.90652 3.0862 5.1234 3.12937 5.32573 3.21324C5.52806 3.29712 5.71187 3.42005 5.86666 3.57501L5.91666 3.62501C6.11306 3.81712 6.36251 3.946 6.63284 3.99501C6.90317 4.04403 7.18198 4.01094 7.43333 3.90001H7.49999C7.74647 3.79437 7.95668 3.61897 8.10474 3.3954C8.2528 3.17182 8.33226 2.90983 8.33333 2.64168V2.50001C8.33333 2.05798 8.50892 1.63406 8.82148 1.3215C9.13404 1.00894 9.55797 0.833344 9.99999 0.833344C10.442 0.833344 10.8659 1.00894 11.1785 1.3215C11.4911 1.63406 11.6667 2.05798 11.6667 2.50001V2.57501C11.6677 2.84317 11.7472 3.10516 11.8953 3.32873C12.0433 3.55231 12.2535 3.72771 12.5 3.83334C12.7513 3.94427 13.0302 3.97736 13.3005 3.92835C13.5708 3.87933 13.8203 3.75046 14.0167 3.55834L14.0667 3.50834C14.2214 3.35338 14.4053 3.23045 14.6076 3.14658C14.8099 3.0627 15.0268 3.01953 15.2458 3.01953C15.4649 3.01953 15.6817 3.0627 15.8841 3.14658C16.0864 3.23045 16.2702 3.35338 16.425 3.50834C16.58 3.66313 16.7029 3.84695 16.7868 4.04928C16.8706 4.25161 16.9138 4.46848 16.9138 4.68751C16.9138 4.90654 16.8706 5.12341 16.7868 5.32574C16.7029 5.52807 16.58 5.71189 16.425 5.86668L16.375 5.91668C16.1829 6.11308 16.054 6.36252 16.005 6.63285C15.956 6.90318 15.9891 7.182 16.1 7.43334V7.50001C16.2056 7.74648 16.381 7.95669 16.6046 8.10475C16.8282 8.25282 17.0902 8.33227 17.3583 8.33334H17.5C17.942 8.33334 18.3659 8.50894 18.6785 8.8215C18.9911 9.13406 19.1667 9.55798 19.1667 10C19.1667 10.442 18.9911 10.866 18.6785 11.1785C18.3659 11.4911 17.942 11.6667 17.5 11.6667H17.425C17.1568 11.6677 16.8948 11.7472 16.6713 11.8953C16.4477 12.0433 16.2723 12.2535 16.1667 12.5Z" stroke-width="1.67" stroke-linecap="round" stroke-linejoin="round" fill="none"/>
</g>
<defs>
<clipPath id="clip0_4343_36345">
<rect width="20" height="20" fill="white"/>
</clipPath>
</defs>
</svg>
