<svg width="20" height="20" viewBox="0 0 20 20" fill="none" xmlns="http://www.w3.org/2000/svg">
<path fill-rule="evenodd" clip-rule="evenodd" d="M13.5904 7.40957C13.9165 7.73565 13.9165 8.26435 13.5904 8.59043L9.59043 12.5904C9.26435 12.9165 8.73565 12.9165 8.40957 12.5904L6.40957 10.5904C6.08348 10.2643 6.08348 9.73565 6.40957 9.40957C6.73565 9.08348 7.26435 9.08348 7.59043 9.40957L9 10.8191L12.4096 7.40957C12.7357 7.08348 13.2643 7.08348 13.5904 7.40957Z" />
<path fill-rule="evenodd" clip-rule="evenodd" d="M10 17.33C14.0482 17.33 17.33 14.0482 17.33 10C17.33 5.95175 14.0482 2.67 10 2.67C5.95175 2.67 2.67 5.95175 2.67 10C2.67 14.0482 5.95175 17.33 10 17.33ZM10 19C14.9706 19 19 14.9706 19 10C19 5.02944 14.9706 1 10 1C5.02944 1 1 5.02944 1 10C1 14.9706 5.02944 19 10 19Z" />
</svg>
