<svg width="20" height="20" viewBox="0 0 20 20" fill="none" xmlns="http://www.w3.org/2000/svg">
<path fill-rule="evenodd" clip-rule="evenodd" d="M1.66501 5C1.66501 4.53884 2.03885 4.165 2.50001 4.165H17.5C17.9612 4.165 18.335 4.53884 18.335 5C18.335 5.46116 17.9612 5.835 17.5 5.835H2.50001C2.03885 5.835 1.66501 5.46116 1.66501 5Z"/>
<path fill-rule="evenodd" clip-rule="evenodd" d="M8.33334 2.50166C8.11277 2.50166 7.90123 2.58929 7.74527 2.74525C7.5893 2.90122 7.50168 3.11276 7.50168 3.33333V4.165H12.4983V3.33333C12.4983 3.11276 12.4107 2.90122 12.2548 2.74525C12.0988 2.58929 11.8872 2.50166 11.6667 2.50166H8.33334ZM14.1683 4.165V3.33333C14.1683 2.66985 13.9048 2.03354 13.4356 1.56439C12.9665 1.09523 12.3302 0.831665 11.6667 0.831665H8.33334C7.66986 0.831665 7.03355 1.09523 6.5644 1.56439C6.09524 2.03354 5.83168 2.66985 5.83168 3.33333V4.165H4.16668C3.70552 4.165 3.33168 4.53884 3.33168 5V16.6667C3.33168 17.3301 3.59524 17.9665 4.0644 18.4356C4.53355 18.9048 5.16986 19.1683 5.83334 19.1683H14.1667C14.8302 19.1683 15.4665 18.9048 15.9356 18.4356C16.4048 17.9665 16.6683 17.3302 16.6683 16.6667V5C16.6683 4.53884 16.2945 4.165 15.8333 4.165H14.1683ZM5.00168 5.835V16.6667C5.00168 16.8872 5.0893 17.0988 5.24526 17.2547C5.40123 17.4107 5.61277 17.4983 5.83334 17.4983H14.1667C14.3872 17.4983 14.5988 17.4107 14.7548 17.2547C14.9107 17.0988 14.9983 16.8872 14.9983 16.6667V5.835H5.00168Z"/>
</svg>
